<svg xmlns="http://www.w3.org/2000/svg" version="1.1" xmlns:xlink="http://www.w3.org/1999/xlink" width="436.88634290278503" height="390.11364863999995"><svg viewBox="132.1457943481045 765.14098176 436.88634290278503 390.11364863999995" xmlns="http://www.w3.org/2000/svg" style="max-height: 500px" width="436.88634290278503" height="390.11364863999995">
  <defs>
    <clipPath id="SvgjsClipPath1003">
      <rect height="1920" width="1920" y="0" x="0"></rect>
    </clipPath>
  </defs>
  <g clip-path="url(#logo)">
          <rect height="1920" width="1920" fill="none"></rect>
    <g transform="scale(4.8)">
      <g text-anchor="none" style="mix-blend-mode:normal" stroke-width="none" stroke-miterlimit="10" font-weight="none" font-size="none" font-family="none" fill="none">
<rect width="400" stroke-width="1" height="400" fill="none"></rect>
<g stroke-width="1" id="SvgjsG1002">
<path fill="#7D1EA8" d="m72.61 167.93c0.41843 0.04104 0.67285 0.10328 1.0599 0.29106 0.30121 0.33498 0.36754 0.60955 0.4263 1.0421 0.34665 2.5516 0.16143 5.2882 0.17037 7.8654l0.0462 13.708c0.70495 0.41176 1.3717 0.75644 2.138 1.0469 1.7988-1.7652 3.9668-3.2621 5.8934-4.901 3.1363-2.6674 6.1537-5.468 9.3357-8.0827-0.52413-0.77006-0.98359-1.569-1.2201-2.4769-0.29167-1.1185-0.26228-2.312 0.36451-3.3145 0.62817-1.0051 1.732-1.6317 2.8678-1.8886 2.0088-0.45447 4.1614 0.23337 5.8725 1.293 2.2975 1.4228 4.0988 3.6883 4.6679 6.3595 0.23958 1.1243 0.24291 2.4394-0.4528 3.4124-0.54684 0.76462-1.3925 1.1676-2.3134 1.269-3.0016 0.33058-6.2672-1.5256-8.5597-3.2646-1.6437 1.4137-3.1926 2.9832-4.7712 4.471-3.3053 3.1151-6.5514 6.2261-9.6266 9.5736 1.3246 1.2683 1.6228 2.338 1.9934 4.0831 3.5386 0.12752 26.166-0.07981 27.158 0.3627 0.49278 0.21989 0.78097 0.56592 0.97147 1.0685-0.06451 0.44083-0.12433 0.64634-0.45113 0.96406-0.31636 0.30756-0.72856 0.42206-1.1555 0.46855-2.7898 0.3041-5.7478 0.0998-8.5627 0.09556-5.9624-0.00894-11.941-0.10269-17.9 0.07284-0.46493 1.4794-1.0652 2.6109-1.9475 3.887 4.5015 5.2485 9.3678 10.027 14.357 14.801 1.5769-1.4279 3.2541-2.5663 5.2888-3.2379 1.327-0.43811 2.9215-0.71357 4.2109-0.02059 0.80626 0.43357 1.4258 1.1626 1.6772 2.0456 0.41479 1.457-0.16658 3.0981-0.852 4.3867-1.2362 2.3246-3.1899 4.3255-5.759 5.105-1.5792 0.479-3.5008 0.64983-4.9815-0.19808-0.92105-0.52731-1.7447-1.5103-1.9773-2.5594-0.32817-1.4804 0.23837-2.8254 0.99176-4.0625-1.6007-1.6678-3.3422-3.1781-5.0414-4.7418l-10.083-9.2201-2.11 0.70525c-0.34392 4.8552-0.14386 9.8095-0.13009 14.679 0.0059 2.0256 0.14281 4.1712-0.09858 6.182-0.09874 0.82155-0.29575 1.5509-0.66996 2.2923-0.09918 0.0627-0.25336 0.16794-0.36316 0.2005-0.3318 0.09813-0.49838-0.00894-0.78232-0.15024-0.25684-0.33679-0.34028-0.60425-0.39601-1.0149-0.33074-2.4362-0.1369-5.1022-0.14159-7.5628l-0.05301-14.427c-0.6739-0.44705-1.3788-0.74734-2.1191-1.0614-5.1286 4.5783-10.386 9.0166-15.323 13.805 0.38677 0.74371 0.81247 1.5241 1.0212 2.338 0.26547 1.0361 0.22927 2.15-0.33333 3.0845-0.61122 1.0149-1.6625 1.6033-2.7924 1.8636-2.194 0.50551-4.5025-0.07738-6.3513-1.3086-2.0456-1.3623-3.6097-3.4717-4.0609-5.9152-0.21051-1.1396-0.30167-2.6237 0.41493-3.603 0.5252-0.71751 1.4226-1.1178 2.2884-1.2154 3.0989-0.34983 6.1467 1.8731 8.4622 3.643 4.6667-4.9744 9.7303-9.5291 14.215-14.679-0.90379-1.2135-1.5754-2.4027-1.9698-3.8674-2.5438-0.32286-5.2222-0.19293-7.7877-0.19974l-12.376-0.01908c-1.9411-0.00333-5.3261 0.31877-7.0609-0.33968-0.50837-0.19293-0.72826-0.45644-0.94164-0.94104 0.0215-0.21929-0.01015-0.3939 0.13992-0.56956 0.53277-0.62331 1.6856-0.79899 2.4522-0.89047 2.5208-0.30091 5.2761-0.09526 7.8245-0.1004 5.9474-0.01181 11.931 0.08799 17.872-0.20308 0.2267-1.5332 0.46991-2.816 1.6531-3.8865l0.1943-0.1731c-1.3101-2.5398-11.378-11.199-14.188-14.101-1.4629 1.3163-3.0846 2.3506-4.9684 2.958-1.5147 0.4884-3.3427 0.76052-4.7989-0.03271-0.74342-0.40495-1.2707-1.0369-1.4898-1.8587-0.45766-1.7155 0.30151-3.7753 1.1959-5.2478 1.3894-2.2876 3.7928-4.2465 6.4332-4.8469 1.3967-0.31758 2.8661-0.30394 4.0924 0.52321 1.0192 0.68722 1.8537 1.8942 2.0223 3.124 0.1899 1.386-0.30969 2.5852-1.15 3.6551l-0.12857 0.16113c1.6195 1.7379 3.4575 3.3059 5.2257 4.8904 3.275 2.9347 6.5424 5.7737 10.077 8.3952 0.91741-0.23261 1.5176-0.58621 2.2944-1.1023l0.00743-13.848c0.00257-2.5214-0.27379-5.536 0.24034-8.0006 0.09026-0.43235 0.3309-0.71827 0.62271-1.0366z"></path>
<path fill="#FFFFFF" d="m72.183 195.71c2.2811-0.42084 4.4685 1.097 4.8727 3.3812 0.40404 2.2843-1.1299 4.4603-3.4169 4.8477-2.2635 0.38313-4.4121-1.1314-4.8121-3.3919-0.39995-2.2605 1.0988-4.4203 3.3563-4.8369z"></path>
<path fill="#7D1EA8" d="m79.915 220.55c0.95906-0.08421 1.836-0.12509 2.6621 0.44826 0.60212 0.41781 0.99859 1.0257 1.0976 1.7555 0.08964 0.70343-0.10934 1.4132-0.55154 1.9676-0.72054 0.91938-1.6498 1.1322-2.7566 1.2409 0.06633 3.5717-0.5205 7.6609-3.0698 10.376-1.1359 1.2098-2.6323 1.9853-4.3082 2.0267-1.6894 0.04165-3.2178-0.66026-4.4191-1.8242-2.7965-2.7092-3.1155-6.4774-3.2137-10.149-0.80307-0.06844-1.4586-0.14159-2.1918-0.50127-0.54866-0.47265-0.94982-1.0931-1.1561-1.7873-0.1587-0.54306-0.10374-1.0646 0.20368-1.5478 0.421-0.66208 1.1683-1.0881 1.9313-1.2235 0.84351-0.14962 1.8083 0.04664 2.4949 0.57016 0.42735 0.3259 0.68511 0.7416 0.7528 1.2786 0.1045 0.82882-0.14401 1.5627-0.62635 2.2243l0.06179 0.13811 0.10026 0.23156c1.1284 2.5386 1.5538 6.7199 3.8265 8.4629 0.81187 0.62271 1.8453 0.80702 2.8432 0.62544 2.987-0.54352 3.9027-4.62 4.4308-7.1118 0.12312-0.58091 0.20778-1.5516 0.55821-2.0193 0.81126-1.0823-0.75053-1.8739-0.4207-3.3221 0.19414-0.85305 0.87516-1.3433 1.5857-1.7642z"></path>
<path fill="#7D1EA8" d="m71.839 161.66c1.7898-0.14675 3.462 0.257 4.8798 1.3946 2.6433 2.1212 3.2552 5.7836 3.5839 8.9475 0.29985 0.01454 0.60212 0.02923 0.89969 0.07118 0.83155 0.11722 1.812 0.66829 2.2884 1.3678 0.38874 0.57062 0.48022 1.2731 0.31803 1.938-0.18658 0.76795-0.69374 1.4188-1.3929 1.7873-0.70238 0.36724-1.5547 0.46658-2.3091 0.20368-2.2231-0.77476-1.8441-3.8577-2.1109-5.7053-0.17991-1.2465-0.55533-2.5973-1.1094-3.7302-0.69344-1.418-1.5999-2.2984-3.0914-2.812-0.53593-0.03801-1.0781-0.05512-1.6096 0.04361-2.8031 0.52018-4.3865 5.2422-4.6728 7.7214-0.12706 1.1008 0.50186 2.4104-0.25744 3.3848-0.54973 0.7054-1.4506 1.1182-2.3273 1.207-0.76506 0.07754-1.5224-0.15613-2.0886-0.68147-0.52701-0.49627-0.83973-1.1785-0.87153-1.9018-0.03453-0.769 0.27078-1.5142 0.83473-2.0379 0.83368-0.78732 1.7017-0.80218 2.7728-0.78278 0.18248-2.3917 0.53398-4.9714 1.7523-7.082 1.0531-1.8244 2.5239-2.7848 4.5115-3.3333z"></path>
<path fill="#7D1EA8" d="m40.166 190.27c0.55517-0.058 1.1599-0.15537 1.7061-0.00273 0.65059 0.18172 1.2471 0.59804 1.5627 1.2056 0.26184 0.50778 0.30939 1.0991 0.13221 1.6423-0.18323 0.56941-0.60274 1.0096-1.135 1.2712-0.98859 0.48551-1.9496 0.25018-2.942-0.08116-1.7097 0.90273-4.5943 2.6621-5.3718 4.5139-0.31423 0.74855-0.27819 1.5569 0.04014 2.2968 0.88077 2.0468 3.5965 3.5583 5.557 4.3936 0.08556-0.01818 0.17128-0.03544 0.25655-0.05482 0.77641-0.17612 1.3402-0.30575 2.1178-0.05452 0.56578 0.18277 1.114 0.48976 1.3563 1.0602 0.32074 0.75477 0.07754 1.5734-0.23337 2.2831-0.30969 0.27319-0.5885 0.494-0.98132 0.63725-0.93377 0.34059-2.0696 0.00546-2.9253-0.40328-2.8288-1.351-7.9996-4.4099-9.0532-7.5502-0.43948-1.3101-0.29091-2.6391 0.32787-3.8648 1.4845-2.94 6.5453-6.2383 9.5854-7.2925z"></path>
<path fill="#7D1EA8" d="m104.03 190.13c3.1002 0.05573 7.2443 3.2714 9.3987 5.3164 1.16 1.1011 2.349 2.5822 2.3562 4.2551 0.00818 1.8937-1.196 3.6035-2.4857 4.8933-2.2202 2.2205-6.4229 5.0433-9.6567 5.0406-0.48506-0.14916-0.85881-0.34149-1.1944-0.72464-0.38042-0.43448-0.61498-0.97965-0.53428-1.565 0.08283-0.60258 0.47385-1.1369 0.95785-1.4871 0.93392-0.67617 1.8301-0.47036 2.8856-0.29076 2.1301-0.9421 4.9361-2.1453 5.9403-4.4306 0.33104-0.75309 0.38056-1.5898 0.07254-2.3591-0.86002-2.1469-3.9937-3.6259-5.9638-4.5354-0.81958 0.17507-1.7303 0.45129-2.5357 0.09146-0.5476-0.24472-0.99813-0.63725-1.201-1.2145-0.20111-0.57183-0.10965-1.1679 0.1631-1.6994 0.42327-0.82488 0.94588-1.0489 1.7973-1.2902z"></path>
<path fill="#7D1EA8" d="m52.831 187.71c1.3954-0.43886 2.882 0.33665 3.3207 1.732 0.43856 1.3952-0.33695 2.882-1.7323 3.3204-1.3952 0.43856-2.8817-0.33695-3.3203-1.7321-0.43856-1.395 0.33679-2.8816 1.7318-3.3203z"></path>
<path fill="#7D1EA8" d="m92.218 187.73c1.4253 0.00289 2.5823 1.1535 2.5929 2.5787 0.01075 1.4253-1.1288 2.5931-2.554 2.6173-1.4443 0.02469-2.6314-1.1337-2.6423-2.5782-0.01075-1.4447 1.1588-2.6206 2.6034-2.6178z"></path>
<path fill="#7D1EA8" d="m91.768 206.8c1.3576-0.33938 2.7344 0.48157 3.0815 1.8372s-0.46598 2.7372-1.8197 3.0919c-1.3646 0.35754-2.7596-0.46339-3.1095-1.83-0.34983-1.3667 0.479-2.7571 1.8477-3.0992z"></path>
<path fill="#7D1EA8" d="m52.773 206.96c1.3358-0.41873 2.7575 0.32801 3.1708 1.6656 0.41312 1.3375-0.33968 2.756-1.6788 3.1637-1.3314 0.40539-2.74-0.34211-3.1507-1.6717-0.41086-1.3298 0.33074-2.7413 1.6587-3.1576z"></path>
</g>
</g>
    </g>
  </g>
</svg><style>@media (prefers-color-scheme: light) { :root { filter: none; } }
@media (prefers-color-scheme: dark) { :root { filter: none; } }
</style></svg>